<svg width="24" height="24" viewBox="0 0 24 24" fill="none" xmlns="http://www.w3.org/2000/svg">
<path d="M5 15H3V19C3 20.105 3.895 21 5 21H9V19H5V15ZM5 5H9V3H5C3.895 3 3 3.895 3 5V9H5V5ZM19 3H15V5H19V9H21V5C21 3.895 20.105 3 19 3ZM19 19H15V21H19C20.105 21 21 20.105 21 19V15H19V19ZM12 8C9.79 8 8 9.79 8 12C8 14.21 9.79 16 12 16C14.21 16 16 14.21 16 12C16 9.79 14.21 8 12 8ZM12 14C10.895 14 10 13.105 10 12C10 10.895 10.895 10 12 10C13.105 10 14 10.895 14 12C14 13.105 13.105 14 12 14Z" fill="black"/>
</svg>
