<svg width="27" height="29" viewBox="0 0 27 29" fill="none" xmlns="http://www.w3.org/2000/svg">
<g clip-path="url(#clip0)">
<path d="M16.9862 19.8924L19.8029 12.0598C21.0447 12.8251 22.7131 12.5169 23.6336 11.3104L24.3293 10.3985C25.3096 9.11368 25.0875 7.28306 23.8254 6.32017L18.3714 2.15913C17.1093 1.19625 15.2886 1.46101 14.3048 2.75047L13.6056 3.66691C12.7448 4.79519 12.8133 6.34107 13.6929 7.34729L6.84453 12.1549C6.01438 12.7383 5.49815 13.6486 5.41888 14.6592L4.72132 23.9482L6.17271 25.0556L14.9475 21.929C15.9022 21.5936 16.6429 20.8472 16.9862 19.8924ZM14.4884 20.5586L7.43792 23.0701L10.9022 18.5293C11.6228 18.7439 12.4456 18.4973 12.9374 17.8526C13.5699 17.0237 13.4248 15.8492 12.6134 15.2302C11.8021 14.6112 10.631 14.7815 9.99861 15.6105C9.54185 16.2091 9.4909 16.9863 9.80402 17.604L6.30106 22.1954L6.86084 14.732C6.90203 14.1733 7.19028 13.6646 7.65226 13.3395L14.8423 8.28972L18.6014 11.1577L15.6304 19.4263C15.4343 19.9543 15.0244 20.3701 14.4884 20.5586ZM11.2115 17.0677C11.0312 16.9302 10.9984 16.6647 11.139 16.4805C11.2795 16.2963 11.5442 16.2578 11.7245 16.3954C11.9048 16.5329 11.9376 16.7984 11.7971 16.9826C11.661 17.1702 11.3963 17.2087 11.2115 17.0677ZM14.7495 4.53234L15.4452 3.62051C15.9371 2.97578 16.8479 2.84742 17.4745 3.32542L22.9284 7.48646C23.5595 7.9679 23.6683 8.88149 23.1799 9.52162L22.4807 10.4381C21.9888 11.0828 21.078 11.2112 20.4514 10.7331L14.9975 6.57211C14.3709 6.0941 14.2576 5.17708 14.7495 4.53234Z" fill="black"/>
</g>
<defs>
<clipPath id="clip0">
<rect width="13.0737" height="25.6028" fill="white" transform="translate(15.7793 0.181641) rotate(37.3414)"/>
</clipPath>
</defs>
</svg>
