<svg width="24" height="24" viewBox="0 0 24 24" fill="none" xmlns="http://www.w3.org/2000/svg">
<path d="M21.75 0H2.25C1.65326 0 1.08097 0.237053 0.65901 0.65901C0.237053 1.08097 0 1.65326 0 2.25L0 21.75C0 22.3467 0.237053 22.919 0.65901 23.341C1.08097 23.7629 1.65326 24 2.25 24H21.75C22.3467 24 22.919 23.7629 23.341 23.341C23.7629 22.919 24 22.3467 24 21.75V2.25C24 1.65326 23.7629 1.08097 23.341 0.65901C22.919 0.237053 22.3467 0 21.75 0V0ZM1.5 2.25C1.5 2.05109 1.57902 1.86032 1.71967 1.71967C1.86032 1.57902 2.05109 1.5 2.25 1.5H11.25V5.25H1.5V2.25ZM16.5 6.75V11.25H7.5V6.75H16.5ZM1.5 6.75H6V11.25H1.5V6.75ZM1.5 12.75H11.25V17.25H1.5V12.75ZM6 22.5H2.25C2.05109 22.5 1.86032 22.421 1.71967 22.2803C1.57902 22.1397 1.5 21.9489 1.5 21.75V18.75H6V22.5ZM16.5 22.5H7.5V18.75H16.5V22.5ZM22.5 21.75C22.5 21.9489 22.421 22.1397 22.2803 22.2803C22.1397 22.421 21.9489 22.5 21.75 22.5H18V18.75H22.5V21.75ZM22.5 17.25H12.75V12.75H22.5V17.25ZM22.5 11.25H18V6.75H22.5V11.25ZM22.5 5.25H12.75V1.5H21.75C21.9489 1.5 22.1397 1.57902 22.2803 1.71967C22.421 1.86032 22.5 2.05109 22.5 2.25V5.25Z" fill="black"/>
</svg>
